<mxfile host="app.diagrams.net" agent="Mozilla/5.0 (Windows NT 10.0; Win64; x64) AppleWebKit/537.36 (KHTML, like Gecko) Chrome/128.0.0.0 Safari/537.36 OPR/114.0.0.0" version="25.0.3">
  <diagram name="Página-1" id="PGwewP7MrO8pDl0tjuPC">
    <mxGraphModel dx="1393" dy="763" grid="1" gridSize="10" guides="1" tooltips="1" connect="1" arrows="1" fold="1" page="1" pageScale="1" pageWidth="827" pageHeight="1169" math="0" shadow="0">
      <root>
        <mxCell id="0" />
        <mxCell id="1" parent="0" />
        <mxCell id="hJfD0fT6xj7bWVSiW2S9-1" value="INICIO" style="strokeWidth=2;html=1;shape=mxgraph.flowchart.start_1;whiteSpace=wrap;" vertex="1" parent="1">
          <mxGeometry x="364" y="30" width="100" height="60" as="geometry" />
        </mxCell>
        <mxCell id="hJfD0fT6xj7bWVSiW2S9-2" value="FIM" style="strokeWidth=2;html=1;shape=mxgraph.flowchart.start_1;whiteSpace=wrap;" vertex="1" parent="1">
          <mxGeometry x="369" y="1060" width="100" height="60" as="geometry" />
        </mxCell>
        <mxCell id="hJfD0fT6xj7bWVSiW2S9-4" value="CARGO" style="html=1;strokeWidth=2;shape=manualInput;whiteSpace=wrap;rounded=1;size=26;arcSize=11;" vertex="1" parent="1">
          <mxGeometry x="364" y="100" width="100" height="60" as="geometry" />
        </mxCell>
        <mxCell id="hJfD0fT6xj7bWVSiW2S9-5" style="edgeStyle=orthogonalEdgeStyle;rounded=0;orthogonalLoop=1;jettySize=auto;html=1;entryX=0.5;entryY=0.25;entryDx=0;entryDy=0;entryPerimeter=0;" edge="1" parent="1" source="hJfD0fT6xj7bWVSiW2S9-1" target="hJfD0fT6xj7bWVSiW2S9-4">
          <mxGeometry relative="1" as="geometry" />
        </mxCell>
        <mxCell id="hJfD0fT6xj7bWVSiW2S9-6" value="DEPARTAMENTO" style="html=1;strokeWidth=2;shape=manualInput;whiteSpace=wrap;rounded=1;size=26;arcSize=11;" vertex="1" parent="1">
          <mxGeometry x="357" y="200" width="114" height="60" as="geometry" />
        </mxCell>
        <mxCell id="hJfD0fT6xj7bWVSiW2S9-7" style="edgeStyle=orthogonalEdgeStyle;rounded=0;orthogonalLoop=1;jettySize=auto;html=1;entryX=0.493;entryY=0.267;entryDx=0;entryDy=0;entryPerimeter=0;" edge="1" parent="1" source="hJfD0fT6xj7bWVSiW2S9-4" target="hJfD0fT6xj7bWVSiW2S9-6">
          <mxGeometry relative="1" as="geometry" />
        </mxCell>
        <mxCell id="hJfD0fT6xj7bWVSiW2S9-8" value="IDADE" style="html=1;strokeWidth=2;shape=manualInput;whiteSpace=wrap;rounded=1;size=26;arcSize=11;" vertex="1" parent="1">
          <mxGeometry x="367" y="280" width="94" height="60" as="geometry" />
        </mxCell>
        <mxCell id="hJfD0fT6xj7bWVSiW2S9-9" style="edgeStyle=orthogonalEdgeStyle;rounded=0;orthogonalLoop=1;jettySize=auto;html=1;entryX=0.579;entryY=0.167;entryDx=0;entryDy=0;entryPerimeter=0;" edge="1" parent="1" source="hJfD0fT6xj7bWVSiW2S9-6" target="hJfD0fT6xj7bWVSiW2S9-8">
          <mxGeometry relative="1" as="geometry">
            <Array as="points">
              <mxPoint x="421" y="270" />
              <mxPoint x="421" y="270" />
            </Array>
          </mxGeometry>
        </mxCell>
        <mxCell id="hJfD0fT6xj7bWVSiW2S9-24" value="" style="edgeStyle=orthogonalEdgeStyle;rounded=0;orthogonalLoop=1;jettySize=auto;html=1;" edge="1" parent="1" source="hJfD0fT6xj7bWVSiW2S9-14" target="hJfD0fT6xj7bWVSiW2S9-16">
          <mxGeometry relative="1" as="geometry" />
        </mxCell>
        <mxCell id="hJfD0fT6xj7bWVSiW2S9-14" value="CARGO=&quot;GERENTE&quot;" style="strokeWidth=2;html=1;shape=mxgraph.flowchart.decision;whiteSpace=wrap;" vertex="1" parent="1">
          <mxGeometry x="339.5" y="370" width="149" height="100" as="geometry" />
        </mxCell>
        <mxCell id="hJfD0fT6xj7bWVSiW2S9-15" style="edgeStyle=orthogonalEdgeStyle;rounded=0;orthogonalLoop=1;jettySize=auto;html=1;entryX=0.5;entryY=0;entryDx=0;entryDy=0;entryPerimeter=0;" edge="1" parent="1" source="hJfD0fT6xj7bWVSiW2S9-8" target="hJfD0fT6xj7bWVSiW2S9-14">
          <mxGeometry relative="1" as="geometry" />
        </mxCell>
        <mxCell id="hJfD0fT6xj7bWVSiW2S9-16" value="DEPARTAMENTO = &quot;TIC&quot;" style="strokeWidth=2;html=1;shape=mxgraph.flowchart.decision;whiteSpace=wrap;" vertex="1" parent="1">
          <mxGeometry x="335" y="510" width="157" height="100" as="geometry" />
        </mxCell>
        <mxCell id="hJfD0fT6xj7bWVSiW2S9-17" style="edgeStyle=orthogonalEdgeStyle;rounded=0;orthogonalLoop=1;jettySize=auto;html=1;entryX=0.5;entryY=0;entryDx=0;entryDy=0;entryPerimeter=0;" edge="1" parent="1" source="hJfD0fT6xj7bWVSiW2S9-14" target="hJfD0fT6xj7bWVSiW2S9-16">
          <mxGeometry relative="1" as="geometry" />
        </mxCell>
        <mxCell id="hJfD0fT6xj7bWVSiW2S9-25" value="SIM" style="edgeLabel;html=1;align=center;verticalAlign=middle;resizable=0;points=[];" vertex="1" connectable="0" parent="hJfD0fT6xj7bWVSiW2S9-17">
          <mxGeometry x="-0.1683" y="-3" relative="1" as="geometry">
            <mxPoint as="offset" />
          </mxGeometry>
        </mxCell>
        <mxCell id="hJfD0fT6xj7bWVSiW2S9-18" value="IDADE &amp;gt; 60" style="strokeWidth=2;html=1;shape=mxgraph.flowchart.decision;whiteSpace=wrap;" vertex="1" parent="1">
          <mxGeometry x="335.5" y="660" width="157" height="100" as="geometry" />
        </mxCell>
        <mxCell id="hJfD0fT6xj7bWVSiW2S9-19" value="&quot;Você ira receber um bonus&quot;" style="strokeWidth=2;html=1;shape=mxgraph.flowchart.display;whiteSpace=wrap;" vertex="1" parent="1">
          <mxGeometry x="120" y="830" width="130" height="60" as="geometry" />
        </mxCell>
        <mxCell id="hJfD0fT6xj7bWVSiW2S9-20" value="&quot;Você ira receber um bonus PLUS&quot;" style="strokeWidth=2;html=1;shape=mxgraph.flowchart.display;whiteSpace=wrap;" vertex="1" parent="1">
          <mxGeometry x="630" y="830" width="130" height="60" as="geometry" />
        </mxCell>
        <mxCell id="hJfD0fT6xj7bWVSiW2S9-21" style="edgeStyle=orthogonalEdgeStyle;rounded=0;orthogonalLoop=1;jettySize=auto;html=1;entryX=0.5;entryY=0;entryDx=0;entryDy=0;entryPerimeter=0;" edge="1" parent="1" source="hJfD0fT6xj7bWVSiW2S9-16" target="hJfD0fT6xj7bWVSiW2S9-18">
          <mxGeometry relative="1" as="geometry" />
        </mxCell>
        <mxCell id="hJfD0fT6xj7bWVSiW2S9-26" value="SIM" style="edgeLabel;html=1;align=center;verticalAlign=middle;resizable=0;points=[];" vertex="1" connectable="0" parent="hJfD0fT6xj7bWVSiW2S9-21">
          <mxGeometry x="-0.55" relative="1" as="geometry">
            <mxPoint as="offset" />
          </mxGeometry>
        </mxCell>
        <mxCell id="hJfD0fT6xj7bWVSiW2S9-22" style="edgeStyle=orthogonalEdgeStyle;rounded=0;orthogonalLoop=1;jettySize=auto;html=1;entryX=0.5;entryY=0;entryDx=0;entryDy=0;entryPerimeter=0;" edge="1" parent="1" source="hJfD0fT6xj7bWVSiW2S9-18" target="hJfD0fT6xj7bWVSiW2S9-19">
          <mxGeometry relative="1" as="geometry" />
        </mxCell>
        <mxCell id="hJfD0fT6xj7bWVSiW2S9-28" value="F" style="edgeLabel;html=1;align=center;verticalAlign=middle;resizable=0;points=[];" vertex="1" connectable="0" parent="hJfD0fT6xj7bWVSiW2S9-22">
          <mxGeometry x="-0.3727" y="-3" relative="1" as="geometry">
            <mxPoint as="offset" />
          </mxGeometry>
        </mxCell>
        <mxCell id="hJfD0fT6xj7bWVSiW2S9-23" style="edgeStyle=orthogonalEdgeStyle;rounded=0;orthogonalLoop=1;jettySize=auto;html=1;entryX=0.615;entryY=-0.033;entryDx=0;entryDy=0;entryPerimeter=0;" edge="1" parent="1" source="hJfD0fT6xj7bWVSiW2S9-18" target="hJfD0fT6xj7bWVSiW2S9-20">
          <mxGeometry relative="1" as="geometry" />
        </mxCell>
        <mxCell id="hJfD0fT6xj7bWVSiW2S9-27" value="V" style="edgeLabel;html=1;align=center;verticalAlign=middle;resizable=0;points=[];" vertex="1" connectable="0" parent="hJfD0fT6xj7bWVSiW2S9-23">
          <mxGeometry x="-0.5804" y="-4" relative="1" as="geometry">
            <mxPoint as="offset" />
          </mxGeometry>
        </mxCell>
        <mxCell id="hJfD0fT6xj7bWVSiW2S9-29" value="" style="strokeWidth=2;html=1;shape=mxgraph.flowchart.start_2;whiteSpace=wrap;" vertex="1" parent="1">
          <mxGeometry x="650" y="470" width="30" height="30" as="geometry" />
        </mxCell>
        <mxCell id="hJfD0fT6xj7bWVSiW2S9-30" style="edgeStyle=orthogonalEdgeStyle;rounded=0;orthogonalLoop=1;jettySize=auto;html=1;entryX=0.5;entryY=0;entryDx=0;entryDy=0;entryPerimeter=0;" edge="1" parent="1" source="hJfD0fT6xj7bWVSiW2S9-14" target="hJfD0fT6xj7bWVSiW2S9-29">
          <mxGeometry relative="1" as="geometry" />
        </mxCell>
        <mxCell id="hJfD0fT6xj7bWVSiW2S9-33" value="NAO" style="edgeLabel;html=1;align=center;verticalAlign=middle;resizable=0;points=[];" vertex="1" connectable="0" parent="hJfD0fT6xj7bWVSiW2S9-30">
          <mxGeometry x="-0.1849" relative="1" as="geometry">
            <mxPoint x="1" as="offset" />
          </mxGeometry>
        </mxCell>
        <mxCell id="hJfD0fT6xj7bWVSiW2S9-35" value="" style="strokeWidth=2;html=1;shape=mxgraph.flowchart.start_2;whiteSpace=wrap;" vertex="1" parent="1">
          <mxGeometry x="404" y="900" width="30" height="30" as="geometry" />
        </mxCell>
        <mxCell id="hJfD0fT6xj7bWVSiW2S9-36" value="" style="strokeWidth=2;html=1;shape=mxgraph.flowchart.start_2;whiteSpace=wrap;" vertex="1" parent="1">
          <mxGeometry x="404" y="980" width="30" height="30" as="geometry" />
        </mxCell>
        <mxCell id="hJfD0fT6xj7bWVSiW2S9-37" style="edgeStyle=orthogonalEdgeStyle;rounded=0;orthogonalLoop=1;jettySize=auto;html=1;entryX=0.5;entryY=0;entryDx=0;entryDy=0;entryPerimeter=0;" edge="1" parent="1" source="hJfD0fT6xj7bWVSiW2S9-36" target="hJfD0fT6xj7bWVSiW2S9-2">
          <mxGeometry relative="1" as="geometry" />
        </mxCell>
        <mxCell id="hJfD0fT6xj7bWVSiW2S9-38" style="edgeStyle=orthogonalEdgeStyle;rounded=0;orthogonalLoop=1;jettySize=auto;html=1;entryX=0;entryY=0.5;entryDx=0;entryDy=0;entryPerimeter=0;" edge="1" parent="1" source="hJfD0fT6xj7bWVSiW2S9-19" target="hJfD0fT6xj7bWVSiW2S9-35">
          <mxGeometry relative="1" as="geometry">
            <Array as="points">
              <mxPoint x="185" y="915" />
            </Array>
          </mxGeometry>
        </mxCell>
        <mxCell id="hJfD0fT6xj7bWVSiW2S9-39" style="edgeStyle=orthogonalEdgeStyle;rounded=0;orthogonalLoop=1;jettySize=auto;html=1;entryX=1;entryY=0.5;entryDx=0;entryDy=0;entryPerimeter=0;" edge="1" parent="1" source="hJfD0fT6xj7bWVSiW2S9-20" target="hJfD0fT6xj7bWVSiW2S9-35">
          <mxGeometry relative="1" as="geometry">
            <Array as="points">
              <mxPoint x="695" y="915" />
            </Array>
          </mxGeometry>
        </mxCell>
        <mxCell id="hJfD0fT6xj7bWVSiW2S9-40" style="edgeStyle=orthogonalEdgeStyle;rounded=0;orthogonalLoop=1;jettySize=auto;html=1;entryX=0.5;entryY=0;entryDx=0;entryDy=0;entryPerimeter=0;" edge="1" parent="1" source="hJfD0fT6xj7bWVSiW2S9-35" target="hJfD0fT6xj7bWVSiW2S9-36">
          <mxGeometry relative="1" as="geometry" />
        </mxCell>
        <mxCell id="hJfD0fT6xj7bWVSiW2S9-41" style="edgeStyle=orthogonalEdgeStyle;rounded=0;orthogonalLoop=1;jettySize=auto;html=1;entryX=1;entryY=0.5;entryDx=0;entryDy=0;entryPerimeter=0;" edge="1" parent="1" source="hJfD0fT6xj7bWVSiW2S9-29" target="hJfD0fT6xj7bWVSiW2S9-2">
          <mxGeometry relative="1" as="geometry">
            <Array as="points">
              <mxPoint x="800" y="485" />
              <mxPoint x="800" y="1090" />
            </Array>
          </mxGeometry>
        </mxCell>
        <mxCell id="hJfD0fT6xj7bWVSiW2S9-42" style="edgeStyle=orthogonalEdgeStyle;rounded=0;orthogonalLoop=1;jettySize=auto;html=1;entryX=0.5;entryY=1;entryDx=0;entryDy=0;entryPerimeter=0;" edge="1" parent="1" source="hJfD0fT6xj7bWVSiW2S9-16" target="hJfD0fT6xj7bWVSiW2S9-29">
          <mxGeometry relative="1" as="geometry" />
        </mxCell>
        <mxCell id="hJfD0fT6xj7bWVSiW2S9-43" value="NAO" style="edgeLabel;html=1;align=center;verticalAlign=middle;resizable=0;points=[];" vertex="1" connectable="0" parent="hJfD0fT6xj7bWVSiW2S9-42">
          <mxGeometry x="0.0644" y="2" relative="1" as="geometry">
            <mxPoint as="offset" />
          </mxGeometry>
        </mxCell>
      </root>
    </mxGraphModel>
  </diagram>
</mxfile>
